<svg width="211" height="46" viewBox="0 0 211 46" fill="none" xmlns="http://www.w3.org/2000/svg">
<g clip-path="url(#clip0_2_284)">
<mask id="mask0_2_284" style="mask-type:luminance" maskUnits="userSpaceOnUse" x="0" y="0" width="211" height="46">
<path d="M211 0H0V46H211V0Z" fill="white"/>
</mask>
<g mask="url(#mask0_2_284)">
<path d="M32.633 6.41225L27.4288 0.00700792V16.805C24.0219 16.805 21.263 19.5801 21.263 23.007H8.74352L22.2245 6.41225L24.1961 3.9805L20.9634 0L0 23.007L20.7962 46L20.9704 45.7827L2.27121 23.007H8.73654L22.3708 39.784V39.77L27.4288 46V29.0899C24.5932 28.5363 22.4544 26.0204 22.4544 23.007C22.4544 19.7834 24.8998 17.1343 28.0279 16.8261C31.156 17.1274 33.6014 19.7764 33.6014 23.007H46.1141L32.633 6.41225Z" fill="white"/>
<path d="M34.0961 0L33.901 0.245277L52.5793 23.007H46.1071L32.4797 39.7769V39.784L30.6614 42.0195L33.901 46L54.8575 23.007L34.0961 0Z" fill="white"/>
<path d="M71.6896 24.3526H79.0606V20.9608H71.6896V18.0314H84.3205V14.6326H67.3213V31.3605H84.4739V27.7795H71.6826V24.3526H71.6896Z" fill="white"/>
<path d="M208.039 17.5337C208.039 17.5337 202.173 24.9621 201.706 25.5578C201.24 24.9621 195.38 17.5337 195.38 17.5337H192.419V31.3674H196.23V23.4274C197.164 24.6047 201.24 29.7765 201.24 29.7765H202.18C202.18 29.7765 206.262 24.6047 207.189 23.4274V31.3674H211V17.5337H208.039Z" fill="white"/>
<path d="M174.591 26.7491V17.5337H170.78V31.3674H173.762C173.762 31.3674 183.655 22.9719 184.623 22.1519V31.3674H188.434V17.5337H185.445C185.445 17.5337 175.559 25.9292 174.591 26.7491Z" fill="white"/>
<path d="M166.377 14.6396H161.201C161.201 14.6396 156.902 19.454 156.477 19.9376C156.038 19.4681 151.509 14.6396 151.509 14.6396H145.665C145.665 14.6396 153.293 22.3764 153.704 22.7968C153.307 23.2313 145.825 31.3675 145.825 31.3675H151.113C151.113 31.3675 155.934 25.7962 156.366 25.2987C156.818 25.7822 162.072 31.3675 162.072 31.3675H168.042C168.042 31.3675 159.528 22.7688 159.104 22.3413C159.514 21.9068 166.377 14.6396 166.377 14.6396Z" fill="white"/>
<path d="M102.26 24.2543C102.532 24.1211 102.79 23.96 102.992 23.7707C103.208 23.5815 103.716 23.0139 103.716 22.0047V20.4139C103.716 19.7973 103.633 18.9073 102.929 18.2695C102.198 17.6108 101.076 17.5337 100.296 17.5337H88.2013V31.3674H99.6407C100.916 31.3674 101.912 31.1361 102.602 30.6946C103.41 30.169 103.8 29.4401 103.8 28.459V26.7771C103.8 26.0203 103.514 25.2985 103.02 24.801C102.894 24.6748 102.622 24.4505 102.247 24.2613L102.26 24.2543ZM92.0123 20.3719H98.8122C99.5783 20.3719 99.7243 20.4911 99.7243 20.4911C99.8915 20.6382 99.9053 20.8835 99.9053 20.9746V22.222C99.9053 22.4743 99.8777 22.5724 99.773 22.6635C99.6407 22.7756 99.3202 22.8317 98.8122 22.8317H92.0123V20.3719ZM100.003 27.52C100.003 27.7583 99.9824 28.0176 99.8014 28.1787C99.7178 28.2488 99.4874 28.375 98.9022 28.375H92.0123V25.6629H98.8398C99.4947 25.6629 99.7032 25.775 99.8079 25.8661C99.9824 26.0203 100.003 26.2866 100.003 26.5179V27.513V27.52Z" fill="white"/>
<path d="M119.357 17.5337H107.235V31.3674H111.045V26.2586H119.357C120.507 26.2586 121.336 26.0413 121.886 25.5928C122.659 24.9621 122.75 24.0231 122.75 23.3783V20.4209C122.75 19.0754 122.367 17.5408 119.357 17.5408V17.5337ZM119.127 22.5304C119.127 22.8457 119.085 22.9719 118.946 23.084C118.8 23.1961 118.528 23.2662 118.187 23.2662H111.045V20.5261H117.999C118.312 20.5261 118.744 20.5261 118.96 20.7223C119.085 20.8275 119.134 20.9816 119.134 21.2549V22.5304H119.127Z" fill="white"/>
<path d="M142.717 18.3116C141.909 17.5337 140.39 17.5337 139.736 17.5337H129.487C128.101 17.5337 127.209 17.7579 126.693 18.2485C125.879 18.9984 125.879 20.3859 125.879 20.9816V27.9265C125.879 28.4451 125.879 29.8396 126.624 30.5895C127.146 31.115 128.122 31.3744 129.612 31.3744H139.742C140.815 31.3744 142.014 31.3113 142.731 30.5544C143.469 29.7695 143.469 28.5011 143.469 28.0877V20.9886C143.469 20.3579 143.469 19.0404 142.717 18.3256V18.3116ZM139.658 28.2208H129.689V20.6803H139.658V28.2208Z" fill="white"/>
</g>
</g>
<defs>
<clipPath id="clip0_2_284">
<rect width="211" height="46" fill="white"/>
</clipPath>
</defs>
</svg>
